<svg width="96" height="96" viewBox="0 0 96 96" fill="none" xmlns="http://www.w3.org/2000/svg">
<path d="M32.9363 19.3702C22.0285 18.7866 12.792 25.6797 12.1325 38.0076C11.3635 52.3816 22.2032 62.4964 27.5929 68.1165C34.2333 75.0084 45.6475 84.6877 45.6475 84.6877C45.6475 84.6877 57.8656 76.4304 65.0978 70.3795C70.8228 65.5763 83.1333 57.1445 83.9515 41.8497C84.611 29.5218 76.1626 21.6827 65.2548 21.0992C58.5751 20.7418 52.573 22.2363 48.7279 27.1063C45.4244 21.8538 39.616 19.7275 32.9363 19.3702Z" fill="#F34752"/>
<path fill-rule="evenodd" clip-rule="evenodd" d="M45.6474 84.6876C45.6474 84.6876 34.2332 75.0083 27.5928 68.1165C27.2458 67.7546 26.8762 67.3741 26.4885 66.975C20.8553 61.1762 11.4129 51.4561 12.1324 38.0076C12.7919 25.6796 22.0284 18.7866 32.9362 19.3702C38.858 19.687 44.0949 21.394 47.5089 25.437C47.9459 25.9545 48.353 26.5103 48.7279 27.1063C49.1642 26.5537 49.6283 26.0445 50.118 25.5766C53.9438 21.9209 59.333 20.7823 65.2548 21.0991C76.1625 21.6827 84.6109 29.5218 83.9514 41.8497C83.2114 55.6832 73.0701 63.9025 66.9032 68.9006C66.2518 69.4286 65.6447 69.9206 65.0977 70.3795C57.8655 76.4304 45.6474 84.6876 45.6474 84.6876ZM48.8952 23.9792C53.2547 19.9182 59.2332 18.7741 65.3616 19.102C71.2636 19.4177 76.6051 21.7056 80.3912 25.6932C84.193 29.6973 86.3052 35.2893 85.9486 41.9565C85.1577 56.7397 74.2742 65.5252 68.1467 70.4715C67.5001 70.9935 66.9064 71.4727 66.3832 71.9117L66.3811 71.9134C62.7025 74.9911 57.7875 78.6052 53.8211 81.4315C51.832 82.8488 50.0703 84.0759 48.8056 84.9489C48.1732 85.3854 47.6647 85.7336 47.3138 85.9731C47.1383 86.0928 47.0023 86.1853 46.9098 86.2481L46.7681 86.3442C46.7679 86.3443 46.7673 86.3447 45.6474 84.6876C44.3539 86.213 44.3538 86.2129 44.3536 86.2128L44.2209 86.0999C44.1345 86.0264 44.0075 85.9181 43.8438 85.778C43.5163 85.4978 43.0418 85.0904 42.4519 84.5804C41.2725 83.5604 39.6306 82.1285 37.7799 80.4799C34.0893 77.1923 29.5283 73.0077 26.1526 69.5042L26.1493 69.5008C25.7987 69.1352 25.4191 68.7455 25.0162 68.3319C19.4302 62.5978 9.36665 52.2674 10.1352 37.9007C10.4919 31.2335 13.1887 25.8987 17.396 22.3231C21.5859 18.7622 27.141 17.0573 33.043 17.373C39.1715 17.7009 44.9938 19.4763 48.8952 23.9792ZM44.3536 86.2128L45.6474 84.6876L46.7681 86.3442C46.025 86.8463 45.0376 86.7928 44.3536 86.2128Z" fill="#AE1E2F"/>
<path fill-rule="evenodd" clip-rule="evenodd" d="M13.1478 46.9404C16.2499 52.8381 20.7533 57.4739 23.9951 60.8111C24.3828 61.2102 24.7524 61.5907 25.0995 61.9526C31.7399 68.8444 43.154 78.5237 43.154 78.5237C43.154 78.5237 55.3721 70.2665 62.6044 64.2156C63.1513 63.7567 63.7584 63.2646 64.4098 62.7367C70.5767 57.7386 80.718 49.5193 81.4581 35.6858C81.5715 33.5645 81.4154 31.5761 81.0234 29.7347C83.1025 32.9973 84.2062 37.0888 83.9515 41.8497C83.2114 55.6833 73.0702 63.9025 66.9033 68.9006C66.2518 69.4286 65.6448 69.9206 65.0978 70.3795C57.8656 76.4304 45.6475 84.6877 45.6475 84.6877C45.6475 84.6877 34.2333 75.0084 27.5929 68.1165C27.2459 67.7546 26.8762 67.3741 26.4886 66.9751C22.1907 62.5508 15.6756 55.8441 13.1478 46.9404Z" fill="#DD2D37"/>
<path d="M58.089 65.864C57.9522 67.4878 56.525 68.6934 54.9012 68.5567C53.2774 68.42 52.0718 66.9928 52.2085 65.3689C52.3452 63.7451 53.7724 62.5395 55.3963 62.6762C57.0201 62.813 58.2257 64.2402 58.089 65.864Z" fill="#C82A2A"/>
<path d="M65.6252 64.2779C65.5227 65.4958 64.4523 66.3999 63.2344 66.2974C62.0165 66.1949 61.1123 65.1245 61.2149 63.9066C61.3174 62.6887 62.3878 61.7845 63.6057 61.8871C64.8236 61.9896 65.7277 63.06 65.6252 64.2779Z" fill="#C82A2A"/>
<path d="M73.7183 56.076C73.6158 57.2939 72.5454 58.198 71.3275 58.0955C70.1096 57.993 69.2055 56.9226 69.308 55.7047C69.4105 54.4868 70.4809 53.5826 71.6988 53.6852C72.9167 53.7877 73.8209 54.8581 73.7183 56.076Z" fill="#C82A2A"/>
<path d="M77.2774 48.9729C77.1749 50.1908 76.1045 51.095 74.8866 50.9925C73.6687 50.8899 72.7646 49.8195 72.8671 48.6016C72.9696 47.3838 74.04 46.4796 75.2579 46.5821C76.4758 46.6847 77.3799 47.7551 77.2774 48.9729Z" fill="#C82A2A"/>
<path d="M51.6517 71.9845C51.5491 73.2024 50.4787 74.1066 49.2609 74.0041C48.043 73.9015 47.1388 72.8311 47.2414 71.6132C47.3439 70.3954 48.4143 69.4912 49.6322 69.5937C50.85 69.6963 51.7542 70.7667 51.6517 71.9845Z" fill="#C82A2A"/>
<path d="M66.2441 56.9273C66.1416 58.1452 65.0711 59.0493 63.8533 58.9468C62.6354 58.8443 61.7312 57.7739 61.8338 56.556C61.9363 55.3381 63.0067 54.4339 64.2246 54.5365C65.4424 54.639 66.3466 55.7094 66.2441 56.9273Z" fill="#C82A2A"/>
<path d="M45.5855 73.6946C45.5171 74.5065 44.8035 75.1093 43.9916 75.0409C43.1797 74.9726 42.5769 74.259 42.6453 73.447C42.7136 72.6351 43.4272 72.0323 44.2392 72.1007C45.0511 72.1691 45.6538 72.8827 45.5855 73.6946Z" fill="#C82A2A"/>
<path d="M76.3643 42.2336C76.2959 43.0456 75.5823 43.6483 74.7704 43.58C73.9585 43.5116 73.3557 42.798 73.4241 41.9861C73.4924 41.1742 74.206 40.5714 75.018 40.6398C75.8299 40.7081 76.4327 41.4217 76.3643 42.2336Z" fill="#C82A2A"/>
<path d="M69.865 49.0891C69.7967 49.901 69.0831 50.5038 68.2712 50.4354C67.4592 50.3671 66.8565 49.6535 66.9248 48.8416C66.9932 48.0296 67.7068 47.4269 68.5187 47.4952C69.3306 47.5636 69.9334 48.2772 69.865 49.0891Z" fill="#C82A2A"/>
<path d="M38.6844 43.2647C34.4832 49.3316 27.0047 51.4294 21.9807 47.9504C16.9568 44.4714 16.2898 36.7329 20.491 30.666C24.6923 24.5992 32.1708 22.5013 37.1947 25.9804C42.2187 29.4594 42.8856 37.1979 38.6844 43.2647Z" fill="#FF6F77"/>
<path fill-rule="evenodd" clip-rule="evenodd" d="M28.1307 28.9046C28.8138 29.7726 28.6638 31.03 27.7958 31.7131C26.3919 32.8179 25.3253 34.1094 24.5689 35.5925C24.067 36.5765 22.8625 36.9673 21.8785 36.4654C20.8946 35.9636 20.5038 34.759 21.0056 33.7751C22.0376 31.7518 23.4855 30.0151 25.3221 28.5697C26.1901 27.8866 27.4476 28.0366 28.1307 28.9046Z" fill="white"/>
</svg>
